<?xml version="1.0" encoding="utf-8"?>
<!-- Generator: Adobe Illustrator 24.1.2, SVG Export Plug-In . SVG Version: 6.00 Build 0)  -->
<svg version="1.1" id="Capa_1" xmlns="http://www.w3.org/2000/svg" xmlns:xlink="http://www.w3.org/1999/xlink" x="0px" y="0px"
	 viewBox="0 0 30 30" style="enable-background:new 0 0 30 30;" xml:space="preserve">
<style type="text/css">
	.st0{fill:#25D366;}
</style>
<g>
	<g transform="scale(8.53333,8.53333)">
		<path class="st0" d="M1.8,0.4C1,0.4,0.4,1,0.4,1.8c0,0.3,0.1,0.5,0.2,0.7L0.4,3.2L1.1,3c0.2,0.1,0.4,0.2,0.7,0.2
			c0.8,0,1.4-0.6,1.4-1.4S2.5,0.4,1.8,0.4z M1.3,1.1C1.3,1.1,1.3,1.1,1.3,1.1c0.1,0,0.1,0,0.1,0.1c0,0.1,0.1,0.2,0.1,0.3
			c0,0,0,0,0,0.1c0,0,0,0,0,0.1c0,0,0,0-0.1,0.1c0,0,0,0,0,0.1c0,0,0.1,0.1,0.2,0.2C1.8,2,1.9,2.1,1.9,2.1c0,0,0.1,0,0.1,0
			c0,0,0.1-0.1,0.1-0.1c0,0,0,0,0.1,0c0,0,0.2,0.1,0.2,0.1c0,0,0.1,0,0.1,0c0,0,0,0.1,0,0.2c0,0.1-0.2,0.2-0.2,0.2
			c-0.1,0-0.1,0-0.4-0.1C1.4,2.2,1.2,1.8,1.2,1.8c0,0-0.1-0.2-0.1-0.4C1.1,1.3,1.2,1.2,1.3,1.1C1.2,1.1,1.3,1.1,1.3,1.1L1.3,1.1z"/>
	</g>
</g>
</svg>
